<?xml version="1.0" encoding="UTF-8"?>
<svg version="1.1" xmlns="http://www.w3.org/2000/svg" xmlns:xlink="http://www.w3.org/1999/xlink">
<defs>
<radialGradient id="paint1_radial_6785_34800" cx="0" cy="0" r="1" gradientUnits="userSpaceOnUse" gradientTransform="translate(18.927 13.659) scale(10.3259)"><stop stop-color="#1B93AB" stop-opacity="0"/><stop offset=".23" stop-color="#1B93AB" stop-opacity=".02"/><stop offset=".38" stop-color="#1B93AB" stop-opacity=".07"/><stop offset=".5" stop-color="#1B93AB" stop-opacity=".15"/><stop offset=".61" stop-color="#1B93AB" stop-opacity=".27"/><stop offset=".71" stop-color="#1B93AB" stop-opacity=".43"/><stop offset=".8" stop-color="#1B93AB" stop-opacity=".62"/><stop offset=".89" stop-color="#1B93AB" stop-opacity=".85"/><stop offset=".94" stop-color="#1B93AB"/></radialGradient><radialGradient id="paint2_radial_6785_34800" cx="0" cy="0" r="1" gradientUnits="userSpaceOnUse" gradientTransform="translate(12.356 12.21) scale(11.6354)"><stop offset=".02" stop-color="#1B93AB" stop-opacity="0"/><stop offset=".2" stop-color="#1B93AB" stop-opacity=".02"/><stop offset=".35" stop-color="#1A91AC" stop-opacity=".08"/><stop offset=".49" stop-color="#1A8FAC" stop-opacity=".17"/><stop offset=".61" stop-color="#198BAD" stop-opacity=".31"/><stop offset=".74" stop-color="#1887AE" stop-opacity=".48"/><stop offset=".86" stop-color="#1682B0" stop-opacity=".69"/><stop offset=".98" stop-color="#147BB2" stop-opacity=".94"/><stop offset="1" stop-color="#147AB2"/></radialGradient><radialGradient id="paint3_radial_6785_34800" cx="0" cy="0" r="1" gradientUnits="userSpaceOnUse" gradientTransform="matrix(0 -13.5556 11.9608 0 18.198 16.965)"><stop offset=".01" stop-color="#A7A9AC"/><stop offset=".14" stop-color="#9FA1A4"/><stop offset=".34" stop-color="#8B8C8E"/><stop offset=".59" stop-color="#69686A"/><stop offset=".86" stop-color="#3B3839"/><stop offset=".99" stop-color="#231F20"/></radialGradient><radialGradient id="paint4_radial_6785_34800" cx="0" cy="0" r="1" gradientUnits="userSpaceOnUse" gradientTransform="matrix(20.316 0 0 20.7223 9.45 8.926)"><stop offset=".02" stop-color="#BCBEC0"/><stop offset="1" stop-color="#231F20"/></radialGradient><linearGradient id="paint0_linear_6785_34800" x1="9.665" y1="15.985" x2="22.307" y2="15.985" gradientUnits="userSpaceOnUse"><stop stop-color="#3DC3D7"/><stop offset=".05" stop-color="#37BFD5"/><stop offset=".27" stop-color="#22B0D0"/><stop offset=".41" stop-color="#1AABCE"/><stop offset=".59" stop-color="#1FA4CC"/><stop offset=".86" stop-color="#2E91C8"/><stop offset="1" stop-color="#3884C5"/></linearGradient>
</defs>
<symbol id="i-rectangle-14" viewBox="0 0 40 40" fill="none" xmlns="http://www.w3.org/2000/svg" xmlns:xlink="http://www.w3.org/1999/xlink"><g filter="url(#filter0_dd)"><path fill="url(#pattern0)" d="M4 2h32v32H4z"/></g></symbol>
<symbol id="i-camera-light" viewBox="0 0 24 24" fill="none" xmlns="http://www.w3.org/2000/svg"><path d="M4.222 4.8h9.802c1.67 0 3.022 1.587 3.022 2.873v7.454c0 1.587-1.353 2.873-3.022 2.873H4.222C2.553 18 1.2 16.413 1.2 15.127V7.673C1.2 6.086 2.553 4.8 4.222 4.8zM20.629 6.622l-2.297 1.363v6.828l2.294 1.363c1.195.71 2.174.195 2.174-1.145V7.766c.002-1.344-.976-1.854-2.171-1.144z" fill="#fff"/></symbol>
<symbol id="i-camera" xmlns="http://www.w3.org/2000/svg" fill="none" viewBox="1 4 18 11"><path d="M3.519 4h8.168c1.39 0 2.518 1.322 2.518 2.394v6.212c0 1.322-1.127 2.394-2.518 2.394H3.519C2.128 15 1 13.678 1 12.606V6.394C1 5.072 2.128 4 3.519 4zM17.19 5.518l-1.913 1.136v5.69l1.912 1.136c.995.591 1.811.162 1.811-.954V6.472c.002-1.12-.814-1.545-1.81-.954z" fill="#2B2C2E"/></symbol>
<symbol id="i-check" viewBox="0 0 12 10" fill="none" xmlns="http://www.w3.org/2000/svg"><path d="M.75 5.395l1.132-1.454 3.023 2.494L9.874.986 11.25 2.22 5.098 9.015.75 5.395z" fill="#2B2C2E"/></symbol>
<symbol id="i-chevron-down-gray" viewBox="0 0 8 5" fill="none" xmlns="http://www.w3.org/2000/svg"><path d="M7.5 1.487L4 4.987l-3.5-3.5.82-.82L4 3.347 6.68.666l.82.82z" fill="#090A0A"/></symbol>
<symbol id="i-chevron-down" viewBox="0 0 8 5" fill="none" xmlns="http://www.w3.org/2000/svg"><path d="M8 .913L7.06 0 4 2.967.94 0 0 .913 4 4.8 8 .913z" fill="#fff"/></symbol>
<symbol id="i-chevron-right-gray" viewBox="0 0 8 12" fill="none" xmlns="http://www.w3.org/2000/svg"><path d="M1.37 0L0 1.41 4.45 6 0 10.59 1.37 12 7.2 6 1.37 0z" fill="#87888A"/></symbol>
<symbol id="i-chevron-right-sky50" viewBox="0 0 5 8" fill="none" xmlns="http://www.w3.org/2000/svg"><path d="M.831.5l3.5 3.5-3.5 3.5-.82-.82L2.69 4 .01 1.32.83.5z" fill="#87888A"/></symbol>
<symbol id="i-chevron-right" viewBox="0 0 8 12" fill="none" xmlns="http://www.w3.org/2000/svg"><path d="M1.37 0L0 1.41 4.45 6 0 10.59 1.37 12 7.2 6 1.37 0z" fill="#fff"/></symbol>
<symbol id="i-close-gray" viewBox="0 0 12 12" fill="none" xmlns="http://www.w3.org/2000/svg"><path d="M11.82 1.352L7.172 6l4.648 4.648-1.172 1.172L6 7.172 1.352 11.82.18 10.648 4.828 6 .18 1.352 1.352.18 6 4.828 10.648.18l1.172 1.172z" fill="#F7FCFF"/></symbol>
<symbol id="i-close" viewBox="0 0 12 12" fill="none" xmlns="http://www.w3.org/2000/svg"><path d="M11.833 1.341L7.174 6l4.66 4.659-1.175 1.174L6 7.174l-4.659 4.66-1.174-1.175 4.658-4.66L.167 1.342 1.34.167 6 4.825 10.659.167l1.174 1.174z" fill="#090A0A"/></symbol>
<symbol id="i-ellipsis-h" viewBox="0 0 18 5" fill="none" xmlns="http://www.w3.org/2000/svg"><path d="M10.875 2.5c0-.508-.195-.937-.547-1.328C9.938.821 9.508.625 9 .625c-.547 0-.977.196-1.328.547-.39.39-.547.82-.547 1.328 0 .547.156.977.547 1.328.351.391.781.547 1.328.547a1.77 1.77 0 001.328-.547c.352-.351.547-.78.547-1.328zM15.563.625c.507 0 .937.196 1.328.547.351.39.547.82.547 1.328 0 .547-.196.977-.547 1.328-.391.391-.82.547-1.328.547-.547 0-.977-.156-1.329-.547-.39-.351-.546-.78-.546-1.328 0-.508.156-.937.546-1.328a1.795 1.795 0 011.329-.547zm-13.126 0c.508 0 .938.196 1.329.547.351.39.546.82.546 1.328 0 .547-.195.977-.546 1.328-.391.391-.82.547-1.329.547-.546 0-.976-.156-1.328-.547C.72 3.477.563 3.048.563 2.5c0-.508.156-.937.546-1.328A1.795 1.795 0 012.438.625z" fill="#A0A5AA"/></symbol>
<symbol id="i-envelope" xmlns="http://www.w3.org/2000/svg" viewBox="0 0 512 512"><path fill="#A0A5AA" d="M448 64H64C28.656 64 0 92.656 0 128v256c0 35.344 28.656 64 64 64h384c35.344 0 64-28.656 64-64V128c0-35.344-28.656-64-64-64zM342.656 234.781l135.469-116.094c.938 3 1.875 6 1.875 9.313v256c0 2.219-.844 4.188-1.281 6.281l-136.063-155.5zM448 96c2.125 0 4 .813 6 1.219L256 266.938 58 97.219C60 96.813 61.875 96 64 96h384zM33.266 390.25C32.828 388.156 32 386.219 32 384V128c0-3.313.953-6.313 1.891-9.313L169.313 234.75 33.266 390.25zM64 416c-3.234 0-6.172-.938-9.125-1.844l138.75-158.563 51.969 44.531C248.578 302.719 252.297 304 256 304s7.422-1.281 10.406-3.875l51.969-44.531 138.75 158.563c-2.937.905-5.875 1.843-9.125 1.843H64z"/></symbol>
<symbol id="i-expanded" viewBox="0 0 25 20" fill="none" xmlns="http://www.w3.org/2000/svg"><path fill-rule="evenodd" clip-rule="evenodd" d="M6.118 0H.235v5.882h5.883V0zm18.117 0H7.765v20h16.47V0z" fill="currentColor"/></symbol>
<symbol id="i-facebook-blue" xmlns="http://www.w3.org/2000/svg" viewBox="0 0 24 24" fill="none"><path fill-rule="evenodd" clip-rule="evenodd" d="M24 0H0v24h9.999v-9.436H7.104v-3.366h2.895V8.715c0-2.88 1.752-4.45 4.31-4.45 1.226 0 2.28.092 2.585.133v3.01l-1.774.001c-1.392 0-1.66.664-1.66 1.639v2.148h3.32l-.433 3.367H13.46V24H24V0z" fill="#1877F2"/></symbol>
<symbol id="i-facebook-grey" viewBox="0 0 24 24" fill="none" xmlns="http://www.w3.org/2000/svg"><path fill-rule="evenodd" clip-rule="evenodd" d="M24 0H0v24h9.999v-9.436H7.104v-3.366h2.895V8.715c0-2.88 1.752-4.45 4.31-4.45 1.226 0 2.28.092 2.585.133v3.01l-1.774.001c-1.392 0-1.66.664-1.66 1.639v2.148h3.32l-.433 3.367H13.46V24H24V0z" fill="#B4B5B8"/></symbol>
<symbol id="i-facebook" viewBox="0 0 11 20" fill="none" xmlns="http://www.w3.org/2000/svg"><path fill-rule="evenodd" clip-rule="evenodd" d="M10.28 11.165l.57-3.592H7.282V5.242c0-.983.498-1.94 2.096-1.94H11V.242S9.528 0 8.122 0C5.185 0 3.265 1.72 3.265 4.835v2.738H0v3.592h3.265v8.684a13.404 13.404 0 004.018 0v-8.684h2.996z" fill="#A0A5AA"/></symbol>
<symbol id="i-filter" viewBox="0 0 14 13" fill="none" xmlns="http://www.w3.org/2000/svg"><path fill-rule="evenodd" clip-rule="evenodd" d="M11.459.778H14v1.555h-2.541a1.555 1.555 0 01-2.695 0H0V.778h8.764a1.555 1.555 0 012.695 0zM10.11 12.444c.576 0 1.079-.312 1.348-.777H14V10.11h-2.541a1.555 1.555 0 00-2.695 0H0v1.556h8.764c.269.465.771.777 1.347.777zM5.236 7a1.555 1.555 0 01-2.695 0H0V5.444h2.541a1.555 1.555 0 012.695 0H14V7H5.236z" fill="#090A0A"/></symbol>
<symbol id="i-instagram-grey" viewBox="0 0 24 24" fill="none" xmlns="http://www.w3.org/2000/svg"><path fill-rule="evenodd" clip-rule="evenodd" d="M0 0h24v24H0V0zm18.867 14.775a4.1 4.1 0 01-4.092 4.092h-5.55a4.1 4.1 0 01-4.092-4.092v-5.55a4.1 4.1 0 014.092-4.092h5.555a4.1 4.1 0 014.092 4.092v5.55h-.005zm-4.092-8.26h-5.55a2.71 2.71 0 00-2.71 2.71v5.555a2.71 2.71 0 002.71 2.71h5.555a2.71 2.71 0 002.71-2.71V9.225a2.712 2.712 0 00-2.715-2.71zM12 15.554A3.557 3.557 0 018.447 12 3.557 3.557 0 0112 8.447 3.557 3.557 0 0115.553 12 3.557 3.557 0 0112 15.553zm3.558-6.23a.853.853 0 110-1.706.853.853 0 010 1.706zM12 9.83c-1.2 0-2.17.97-2.17 2.17s.97 2.17 2.17 2.17 2.17-.97 2.17-2.17S13.2 9.83 12 9.83z" fill="#B4B5B8"/></symbol>
<symbol id="i-instagram" viewBox="0 0 18 18" fill="none" xmlns="http://www.w3.org/2000/svg"><path d="M15.625.25c.508 0 .938.195 1.328.547.352.39.547.82.547 1.328v13.75c0 .547-.195.977-.547 1.328-.39.39-.82.547-1.328.547H1.875c-.547 0-.977-.156-1.328-.547-.39-.351-.547-.781-.547-1.328V2.125c0-.508.156-.938.547-1.328A1.795 1.795 0 011.875.25h13.75zm-1.914 6.21A5.972 5.972 0 0015 5.134a4.414 4.414 0 01-1.484.39c.546-.312.898-.78 1.132-1.406-.546.313-1.093.547-1.64.625-.508-.547-1.133-.82-1.836-.82a2.62 2.62 0 00-1.445.43c-.43.312-.743.703-.938 1.171-.234.47-.273 1.016-.117 1.563a6.837 6.837 0 01-2.969-.781A7.023 7.023 0 013.36 4.39c-.234.39-.351.82-.351 1.289 0 .468.078.86.312 1.25.196.39.47.664.86.898-.43 0-.82-.117-1.172-.351v.039c0 .625.195 1.171.586 1.64.39.469.86.781 1.484.899-.39.078-.781.117-1.172.039.156.547.43.976.899 1.289.43.312.937.469 1.484.469a4.947 4.947 0 01-3.164 1.093H2.5c1.172.782 2.5 1.133 3.945 1.133 1.485 0 2.813-.351 3.985-1.133 1.015-.664 1.836-1.601 2.46-2.773a7.51 7.51 0 00.82-3.399v-.312z" fill="#1DA1F2"/></symbol>
<symbol id="i-list" viewBox="0 0 24 20" fill="none" xmlns="http://www.w3.org/2000/svg"><path fill-rule="evenodd" clip-rule="evenodd" d="M5.882 0H0v5.882h5.882V0zm0 7.059H0v5.882h5.882V7.06zM0 14.118h5.882V20H0v-5.882zM23.53 0H7.058v5.882h16.47V0zM7.058 7.059h16.47v5.882H7.06V7.06zm16.47 7.059H7.06V20h16.47v-5.882z" fill="currentColor"/></symbol>
<symbol id="i-loading" viewBox="0 0 38 38" xmlns="http://www.w3.org/2000/svg" stroke="#fff"><g transform="translate(1 1)" stroke-width="2" fill="none" fill-rule="evenodd"><circle stroke-opacity=".5" cx="18" cy="18" r="18"/><path d="M36 18c0-9.94-8.06-18-18-18"><animateTransform attributeName="transform" type="rotate" from="0 18 18" to="360 18 18" dur="1s" repeatCount="indefinite"/></path></g></symbol>
<symbol id="i-microphone" viewBox="0 0 18 18" fill="none" xmlns="http://www.w3.org/2000/svg"><path d="M14.848 10.834a.942.942 0 01-.934-.946V7.193c0-2.554-2.193-4.634-4.9-4.634-2.706 0-4.899 2.08-4.899 4.634v2.695c0 .52-.42.945-.933.945a.942.942 0 01-.933-.945V7.192C2.249 3.6 5.282.667 9.015.667s6.766 2.932 6.766 6.525v2.696c0 .52-.42.946-.933.946z" fill="#2B2C2E"/><path d="M4.86 17.334h-.465c-2.05 0-3.728-1.715-3.728-3.81v-.714C.667 10.715 2.345 9 4.395 9h.466c.513 0 .932.429.932.953v6.428c0 .524-.42.953-.932.953zM13.606 17.333h-.466a.945.945 0 01-.932-.952V9.953c0-.524.42-.953.932-.953h.466c2.05 0 3.728 1.715 3.728 3.81v.714c0 2.095-1.678 3.81-3.728 3.81z" fill="#2B2C2E"/></symbol>
<symbol id="i-mobile-menu" viewBox="0 0 16 10" fill="none" xmlns="http://www.w3.org/2000/svg"><path d="M.5 0h15v1.68H.5V0zm0 5.82V4.18h15v1.64H.5zM.5 10V8.32h15V10H.5z" fill="#F7FCFF"/></symbol>
<symbol id="i-play-big" viewBox="0 0 48 48" fill="none" xmlns="http://www.w3.org/2000/svg"><path fill="#00BAFF" d="M0 0h48v48H0z"/><path d="M17.895 34.477c.468 0 .867-.188 1.335-.457l13.665-7.899c.972-.574 1.312-.95 1.312-1.57 0-.621-.34-.996-1.313-1.559l-13.663-7.91c-.47-.27-.868-.445-1.337-.445-.867 0-1.406.656-1.406 1.675V32.79c0 1.02.54 1.688 1.407 1.688z" fill="#F7FCFF"/></symbol>
<symbol id="i-play-blue" viewBox="0 0 10 11" fill="none" xmlns="http://www.w3.org/2000/svg"><path d="M1.197 10.738c.235 0 .434-.093.668-.228l6.832-3.95c.487-.287.657-.474.657-.785 0-.31-.17-.498-.657-.779L1.865 1.041C1.631.906 1.432.818 1.197.818c-.433 0-.703.328-.703.838v8.239c0 .51.27.843.703.843z" fill="#00BAFF"/></symbol>
<symbol id="i-play-white" viewBox="0 0 9 10" fill="none" xmlns="http://www.w3.org/2000/svg"><path d="M0 0l8.571 5L0 10V0z" fill="#fff"/></symbol>
<symbol id="i-podcast" viewBox="0 0 14 14" fill="none" xmlns="http://www.w3.org/2000/svg"><path fill-rule="evenodd" clip-rule="evenodd" d="M5.833 2.917a1.167 1.167 0 112.334 0v8.166a1.167 1.167 0 11-2.334 0V2.917zM1.75 5.25a1.167 1.167 0 112.333 0v3.5a1.167 1.167 0 11-2.333 0v-3.5zm9.333-1.167c-.644 0-1.166.523-1.166 1.167v3.5a1.167 1.167 0 102.333 0v-3.5c0-.644-.522-1.167-1.167-1.167z" fill="#F2F7FC"/></symbol>
<symbol id="i-podcasts-light" viewBox="0 0 20 20" fill="none" xmlns="http://www.w3.org/2000/svg"><mask id="a" style="mask-type:alpha" maskUnits="userSpaceOnUse" x="0" y="0" width="20" height="20"><path fill="#D9D9D9" d="M0 0h20v20H0z"/></mask><g mask="url(#a)"><path d="M3.417 15.604a9.085 9.085 0 01-1.51-2.574A8.319 8.319 0 011.354 10c0-1.195.23-2.317.688-3.366a8.84 8.84 0 011.854-2.739 8.837 8.837 0 012.74-1.854A8.305 8.305 0 0110 1.354a8.31 8.31 0 013.365.687 8.84 8.84 0 012.74 1.854 8.84 8.84 0 011.854 2.74 8.312 8.312 0 01.687 3.364c0 1.07-.184 2.084-.552 3.042a8.755 8.755 0 01-1.51 2.563.779.779 0 01-.614.291.87.87 0 01-.636-.27.886.886 0 01-.261-.626c-.007-.25.066-.479.219-.687a6.48 6.48 0 001.125-1.98A6.861 6.861 0 0016.813 10c0-1.902-.66-3.514-1.98-4.833-1.319-1.32-2.93-1.98-4.833-1.98-1.902 0-3.514.66-4.833 1.98-1.32 1.32-1.98 2.93-1.98 4.833 0 .82.136 1.594.407 2.324.27.729.65 1.392 1.135 1.989.153.194.226.417.22.667a.921.921 0 01-.282.645.832.832 0 01-.635.26.837.837 0 01-.615-.28zm2.417-2.438a5.43 5.43 0 01-.782-1.47A5.097 5.097 0 014.772 10c0-1.458.506-2.694 1.52-3.708 1.014-1.014 2.25-1.52 3.708-1.52 1.459 0 2.695.506 3.709 1.52 1.014 1.014 1.52 2.25 1.52 3.708 0 .598-.093 1.17-.28 1.719a5.048 5.048 0 01-.782 1.469.73.73 0 01-.604.292.917.917 0 01-.667-.292.87.87 0 01-.26-.614 1.15 1.15 0 01.219-.699c.18-.277.319-.572.416-.885.097-.312.146-.642.146-.99 0-.93-.337-1.732-1.01-2.406-.674-.674-1.476-1.01-2.407-1.01-.93 0-1.732.336-2.406 1.01-.673.674-1.01 1.476-1.01 2.406 0 .361.052.695.156 1 .104.306.24.598.406.875.153.223.222.459.208.709a.925.925 0 01-.27.625.848.848 0 01-.646.26.76.76 0 01-.604-.302zM10 18.646a.888.888 0 01-.656-.262.887.887 0 01-.26-.655v-6.167a1.824 1.824 0 01-.646-.635 1.735 1.735 0 01-.25-.928c0-.5.177-.927.531-1.281.354-.354.781-.531 1.281-.531.5 0 .928.177 1.282.53.354.355.53.782.53 1.282 0 .348-.082.66-.25.938a1.637 1.637 0 01-.645.625v6.167a.889.889 0 01-.917.916z" fill="#fff"/></g></symbol>
<symbol id="i-search-gray" viewBox="0 0 17 17" fill="none" xmlns="http://www.w3.org/2000/svg"><path d="M7.558 14.12c1.27 0 2.465-.365 3.478-.996l3.42 3.42c.274.274.648.407 1.03.407.805 0 1.41-.631 1.41-1.428 0-.374-.124-.73-.406-1.013l-3.387-3.395a6.542 6.542 0 001.096-3.644c0-3.652-2.989-6.649-6.64-6.649-3.653 0-6.65 2.997-6.65 6.65 0 3.651 2.997 6.648 6.65 6.648zm0-2.025c-2.548 0-4.632-2.084-4.632-4.624 0-2.54 2.084-4.623 4.632-4.623 2.54 0 4.624 2.083 4.624 4.623s-2.084 4.624-4.624 4.624z" fill="#a2a3a3"/></symbol>
<symbol id="i-search" viewBox="0 0 17 17" fill="none" xmlns="http://www.w3.org/2000/svg"><path d="M7.558 14.12c1.27 0 2.465-.365 3.478-.996l3.42 3.42c.274.274.648.407 1.03.407.805 0 1.41-.631 1.41-1.428 0-.374-.124-.73-.406-1.013l-3.387-3.395a6.542 6.542 0 001.096-3.644c0-3.652-2.989-6.649-6.64-6.649-3.653 0-6.65 2.997-6.65 6.65 0 3.651 2.997 6.648 6.65 6.648zm0-2.025c-2.548 0-4.632-2.084-4.632-4.624 0-2.54 2.084-4.623 4.632-4.623 2.54 0 4.624 2.083 4.624 4.623s-2.084 4.624-4.624 4.624z" fill="#FDFDFD"/></symbol>
<symbol id="i-trt-app-logo" viewBox="0 0 32 32" fill="none" xmlns="http://www.w3.org/2000/svg"><path d="M24.822 0H7.178A7.178 7.178 0 000 7.178v17.644A7.178 7.178 0 007.178 32h17.644A7.178 7.178 0 0032 24.822V7.178A7.178 7.178 0 0024.822 0z" fill="#fff"/><path d="M16 22.328a6.327 6.327 0 100-12.654 6.327 6.327 0 000 12.654z" fill="url(#paint0_linear_6785_34800)"/><path d="M16 22.328a6.327 6.327 0 100-12.654 6.327 6.327 0 000 12.654z" fill="url(#paint1_radial_6785_34800)"/><path d="M16 22.328a6.327 6.327 0 100-12.654 6.327 6.327 0 000 12.654z" fill="url(#paint2_radial_6785_34800)"/><path d="M20.207 4.388a45.861 45.861 0 00-.966-.272C14.034 2.721 8.418 8.422 7.95 15.101a8.1 8.1 0 0116.152.9c0 .3-.016.6-.049.9-.47 6.678-6.087 12.38-11.296 10.983-.317-.085-.64-.176-.965-.271 1.355.459 2.776.69 4.207.686 7.012 0 12.3-5.288 12.3-12.3.001-5.518-3.277-9.967-8.091-11.611z" fill="url(#paint3_radial_6785_34800)"/><path d="M16 24.1a8.03 8.03 0 01-6.99-4.005A8.145 8.145 0 017.951 15.1c.467-6.679 6.083-12.38 11.29-10.985.317.085.64.176.966.272A12.976 12.976 0 0016 3.7c-7.012 0-12.3 5.288-12.3 12.3 0 5.52 3.278 9.969 8.093 11.613.325.095.648.186.965.271C17.965 29.28 23.582 23.58 24.047 16.9a8.1 8.1 0 01-8.048 7.2z" fill="url(#paint4_radial_6785_34800)"/></symbol>
<symbol id="i-trt-logo-2" viewBox="0 0 132 16" fill="none" xmlns="http://www.w3.org/2000/svg"><path fill-rule="evenodd" clip-rule="evenodd" d="M23.63 0c3.094 0 6.423 1.883 6.423 6.017 0 2.062-1.04 4.098-2.586 5.066l-.385.241L30.387 16H25.81l-2.759-3.94h-3.4v2.454c0 .82-.666 1.486-1.487 1.486h-2.737V1.11c0-.613.497-1.11 1.11-1.11h7.094zm-9.153 0v2.602c0 .698-.566 1.264-1.264 1.264H9.35v10.648c0 .82-.665 1.486-1.486 1.486H5.127V3.866H0V.812C0 .363.363 0 .812 0h13.665zm30.59 0v2.602c0 .698-.566 1.264-1.265 1.264H39.94v10.648c0 .82-.665 1.486-1.486 1.486h-2.737V3.866H30.59V.812c0-.449.364-.812.812-.812h13.666zM23.678 3.818h-4.052V8.17h4.052c1.585 0 2.176-1.335 2.176-2.176 0-1.082-.747-2.176-2.176-2.176z" fill="#fff"/><path d="M48.4.265l4.594 15.47h2.363c.42 0 .73-.2.862-.641l3.224-9.613 3.225 9.613c.132.442.441.64.861.64h2.363L70.486.266h-2.363c-.442 0-.729.221-.861.663l-3.026 10.608L60.636.33h-2.363L54.65 11.536 51.625.928c-.133-.442-.42-.663-.861-.663H48.4zM78.98 16c4.527 0 7.884-3.293 7.884-8s-3.357-8-7.885-8c-4.527 0-7.884 3.293-7.884 8s3.357 8 7.884 8zm0-2.586c-2.872 0-5.014-2.276-5.014-5.414s2.142-5.414 5.013-5.414S83.993 4.862 83.993 8s-2.143 5.414-5.014 5.414zM89.193 15.735h1.944c.485 0 .905-.42.905-.928v-3.89h3.578l3.467 4.818h3.225l-3.755-5.194c2.231-.64 3.644-2.453 3.644-4.928 0-3.337-2.407-5.348-5.919-5.348h-6.36c-.464 0-.73.265-.73.73v14.74zm2.849-12.906h4.24c1.767 0 3.026 1.06 3.026 2.784 0 1.724-1.259 2.763-3.026 2.763h-4.24V2.829zM114.412 15.735c.486 0 .773-.287.773-.774v-1.834h-7.929V.265h-2.076c-.486 0-.773.287-.773.774v14.696h10.005zM122.581 15.735c4.594 0 7.686-3.227 7.686-7.735 0-4.53-3.092-7.735-7.686-7.735h-5.013c-.464 0-.729.265-.729.73v14.74h5.742zm-2.893-12.906h2.893c2.96 0 4.793 2.077 4.793 5.171 0 3.094-1.833 5.171-4.793 5.171h-2.893V2.83z" fill="#00BAFF"/></symbol>
<symbol id="i-trt-logo" viewBox="0 0 132 16" fill="none" xmlns="http://www.w3.org/2000/svg"><path fill-rule="evenodd" clip-rule="evenodd" d="M23.63 0c3.094 0 6.423 1.883 6.423 6.017 0 2.062-1.04 4.098-2.586 5.066l-.385.241L30.387 16H25.81l-2.759-3.94h-3.4v2.454c0 .82-.666 1.486-1.487 1.486h-2.737V1.11c0-.613.497-1.11 1.11-1.11h7.094zm-9.153 0v2.602c0 .698-.566 1.264-1.264 1.264H9.35v10.648c0 .82-.665 1.486-1.486 1.486H5.127V3.866H0V.812C0 .363.363 0 .812 0h13.665zm30.59 0v2.602c0 .698-.566 1.264-1.265 1.264H39.94v10.648c0 .82-.665 1.486-1.486 1.486h-2.737V3.866H30.59V.812c0-.449.364-.812.812-.812h13.666zM23.678 3.818h-4.052V8.17h4.052c1.585 0 2.176-1.335 2.176-2.176 0-1.082-.747-2.176-2.176-2.176z" fill="#fff"/><path d="M48.4.265l4.594 15.47h2.363c.42 0 .729-.2.861-.641l3.225-9.613 3.224 9.613c.133.442.442.64.862.64h2.363L70.486.266h-2.363c-.442 0-.73.221-.862.663l-3.025 10.608L60.636.33h-2.364L54.65 11.536 51.624.928c-.132-.442-.42-.663-.86-.663H48.4zM78.979 16c4.528 0 7.885-3.293 7.885-8s-3.358-8-7.885-8c-4.528 0-7.885 3.293-7.885 8s3.357 8 7.885 8zm0-2.586c-2.871 0-5.013-2.276-5.013-5.414s2.142-5.414 5.013-5.414S83.992 4.862 83.992 8s-2.142 5.414-5.013 5.414zM89.193 15.735h1.943c.486 0 .906-.42.906-.928v-3.89h3.578l3.467 4.818h3.224l-3.754-5.194c2.231-.64 3.644-2.453 3.644-4.928 0-3.337-2.407-5.348-5.919-5.348h-6.36c-.464 0-.73.265-.73.73v14.74zm2.849-12.906h4.24c1.767 0 3.026 1.06 3.026 2.784 0 1.724-1.26 2.763-3.026 2.763h-4.24V2.829zM114.412 15.735c.485 0 .773-.287.773-.774v-1.834h-7.929V.265h-2.076c-.486 0-.773.287-.773.774v14.696h10.005zM122.581 15.735c4.594 0 7.686-3.227 7.686-7.735 0-4.53-3.092-7.735-7.686-7.735h-5.014c-.463 0-.728.265-.728.73v14.74h5.742zm-2.893-12.906h2.893c2.959 0 4.792 2.077 4.792 5.171 0 3.094-1.833 5.171-4.792 5.171h-2.893V2.83z" fill="#00BAFF"/></symbol>
<symbol id="i-twitter-blue" xmlns="http://www.w3.org/2000/svg" viewBox="0 0 25 20" fill="none"><path d="M24.61 2.367c-.905.402-1.879.673-2.9.796A5.064 5.064 0 0023.93.369c-.976.579-2.056.999-3.206 1.225A5.05 5.05 0 0012.12 6.2 14.334 14.334 0 011.713.925a5.025 5.025 0 00-.683 2.538c0 1.752.891 3.298 2.246 4.203a5.029 5.029 0 01-2.287-.632v.064a5.053 5.053 0 004.05 4.95 5.055 5.055 0 01-2.28.087 5.054 5.054 0 004.716 3.507 10.13 10.13 0 01-6.27 2.161c-.408 0-.81-.024-1.205-.07A14.29 14.29 0 007.74 20c9.287 0 14.365-7.694 14.365-14.366 0-.219-.005-.436-.014-.653.986-.712 1.842-1.6 2.519-2.614z" fill="#2AA9E0"/></symbol>
<symbol id="i-twitter-grey" viewBox="0 0 24 24" fill="none" xmlns="http://www.w3.org/2000/svg"><path fill-rule="evenodd" clip-rule="evenodd" d="M24 0H0v24h24V0zm-6.636 9.613v-.357A5.43 5.43 0 0018.73 7.83a5.304 5.304 0 01-1.582.434 2.785 2.785 0 001.21-1.535 5.552 5.552 0 01-1.752.667 2.784 2.784 0 00-2.016-.869c-1.52 0-2.76 1.24-2.76 2.76 0 .217.031.434.078.636a7.836 7.836 0 01-5.705-2.884 2.841 2.841 0 00-.373 1.395c0 .962.481 1.799 1.225 2.295a2.804 2.804 0 01-1.256-.341v.03c0 1.35.962 2.466 2.217 2.714a2.846 2.846 0 01-1.24.046 2.808 2.808 0 002.574 1.923 5.49 5.49 0 01-3.427 1.178 4.6 4.6 0 01-.65-.046 7.745 7.745 0 004.232 1.24c5.085 0 7.86-4.217 7.86-7.86z" fill="#B4B5B8"/></symbol>
<symbol id="i-twitter-square" viewBox="0 0 18 18" fill="none" xmlns="http://www.w3.org/2000/svg"><path d="M15.625.25c.508 0 .938.195 1.328.547.352.39.547.82.547 1.328v13.75c0 .547-.195.977-.547 1.328-.39.39-.82.547-1.328.547H1.875c-.547 0-.977-.156-1.328-.547-.39-.351-.547-.781-.547-1.328V2.125c0-.508.156-.938.547-1.328A1.795 1.795 0 011.875.25h13.75zm-1.914 6.21A5.972 5.972 0 0015 5.134a4.414 4.414 0 01-1.484.39c.546-.312.898-.78 1.132-1.406-.546.313-1.093.547-1.64.625-.508-.547-1.133-.82-1.836-.82a2.62 2.62 0 00-1.445.43c-.43.312-.743.703-.938 1.171-.234.47-.273 1.016-.117 1.563a6.837 6.837 0 01-2.969-.781A7.023 7.023 0 013.36 4.39c-.234.39-.351.82-.351 1.289 0 .468.078.86.312 1.25.196.39.47.664.86.898-.43 0-.82-.117-1.172-.351v.039c0 .625.195 1.171.586 1.64.39.469.86.781 1.484.899-.39.078-.781.117-1.172.039.156.547.43.976.899 1.289.43.312.937.469 1.484.469a4.947 4.947 0 01-3.164 1.093H2.5c1.172.782 2.5 1.133 3.945 1.133 1.485 0 2.813-.351 3.985-1.133 1.015-.664 1.836-1.601 2.46-2.773a7.51 7.51 0 00.82-3.399v-.312z" fill="#1DA1F2"/></symbol>
<symbol id="i-twitter" viewBox="0 0 20 17" fill="none" xmlns="http://www.w3.org/2000/svg"><path d="M17.93 4.438A9.042 9.042 0 0020 2.289c-.781.352-1.563.586-2.344.664.86-.547 1.485-1.289 1.797-2.265-.82.468-1.68.82-2.617.976a4.73 4.73 0 00-1.367-.937 3.868 3.868 0 00-1.64-.352c-.743 0-1.407.196-2.032.547a4.264 4.264 0 00-1.485 1.524c-.39.625-.546 1.328-.546 2.03 0 .313 0 .626.078.938-1.68-.078-3.242-.468-4.727-1.25-1.484-.742-2.695-1.758-3.71-3.047a4.063 4.063 0 00-.587 2.07c0 .704.157 1.368.508 1.954.313.625.781 1.094 1.328 1.484-.664 0-1.289-.195-1.836-.547v.078c0 .977.313 1.836.938 2.579a3.937 3.937 0 002.344 1.445c-.391.078-.743.117-1.094.117-.235 0-.508 0-.742-.039.234.82.703 1.484 1.406 2.031.703.547 1.484.782 2.422.782-1.524 1.171-3.242 1.757-5.117 1.757-.391 0-.704 0-.977-.039 1.875 1.25 3.984 1.836 6.29 1.836 2.382 0 4.491-.586 6.366-1.836a11.078 11.078 0 003.946-4.414c.898-1.719 1.367-3.554 1.367-5.43 0-.234-.04-.39-.04-.507z" fill="#A0A5AA"/></symbol>
<symbol id="i-whatsapp" xmlns="http://www.w3.org/2000/svg" viewBox="0 0 90 90"><path fill="#A0A5AA" d="M90 43.841c0 24.213-19.779 43.841-44.182 43.841a44.256 44.256 0 01-21.357-5.455L0 90l7.975-23.522a43.38 43.38 0 01-6.34-22.637C1.635 19.628 21.416 0 45.818 0 70.223 0 90 19.628 90 43.841zM45.818 6.982c-20.484 0-37.146 16.535-37.146 36.859 0 8.065 2.629 15.534 7.076 21.61L11.107 79.14l14.275-4.537A37.122 37.122 0 0045.819 80.7c20.481 0 37.146-16.533 37.146-36.857S66.301 6.982 45.818 6.982zm22.311 46.956c-.273-.447-.994-.717-2.076-1.254-1.084-.537-6.41-3.138-7.4-3.495-.993-.358-1.717-.538-2.438.537-.721 1.076-2.797 3.495-3.43 4.212-.632.719-1.263.809-2.347.271-1.082-.537-4.571-1.673-8.708-5.333-3.219-2.848-5.393-6.364-6.025-7.441-.631-1.075-.066-1.656.475-2.191.488-.482 1.084-1.255 1.625-1.882.543-.628.723-1.075 1.082-1.793.363-.717.182-1.344-.09-1.883-.27-.537-2.438-5.825-3.34-7.977-.902-2.15-1.803-1.792-2.436-1.792-.631 0-1.354-.09-2.076-.09s-1.896.269-2.889 1.344c-.992 1.076-3.789 3.676-3.789 8.963 0 5.288 3.879 10.397 4.422 11.113.541.716 7.49 11.92 18.5 16.223C58.2 65.771 58.2 64.336 60.186 64.156c1.984-.179 6.406-2.599 7.312-5.107.9-2.512.9-4.663.631-5.111z"/></symbol>
<symbol id="i-youtube-grey" viewBox="0 0 24 24" fill="none" xmlns="http://www.w3.org/2000/svg"><path fill-rule="evenodd" clip-rule="evenodd" d="M0 0h24v24H0V0zm20.005 14.96c-.137.913-.382 1.963-1.35 2.29-1.077.368-2.23.394-3.36.42l-.131.003c-.51.008-1.017.02-1.524.032a89.158 89.158 0 01-4.224.029h-.001a28.426 28.426 0 01-1.724-.048l-.054-.003c-.75-.054-1.572-.112-2.264-.392-1.323-.545-1.405-2.14-1.446-3.368a49.65 49.65 0 01-.027-2.85l-.001-.305c-.005-.99-.01-2.092.41-2.981.505-1.091 1.636-1.255 2.741-1.35.9-.069 1.786-.096 2.686-.11 1.746-.04 3.491-.081 5.237-.013.859.027 1.718.095 2.577.19.682.083 1.39.205 1.854.764.532.655.628 1.582.696 2.4.014.191.027.382.027.573.018.446.012.898.006 1.348-.003.224-.006.448-.006.67l-.005.537c-.004.716-.008 1.444-.117 2.163zm-5.455-2.974c-1.405.832-2.796 1.65-4.2 2.468V9.518c.85.495 1.69.99 2.536 1.49l1.664.978z" fill="#B4B5B8"/></symbol>
</svg>